<?xml version="1.0" encoding="UTF-8" standalone="no"?>
<svg
   xmlns:dc="http://purl.org/dc/elements/1.1/"
   xmlns:cc="http://creativecommons.org/ns#"
   xmlns:rdf="http://www.w3.org/1999/02/22-rdf-syntax-ns#"
   xmlns:svg="http://www.w3.org/2000/svg"
   xmlns="http://www.w3.org/2000/svg"
   xmlns:sodipodi="http://sodipodi.sourceforge.net/DTD/sodipodi-0.dtd"
   xmlns:inkscape="http://www.inkscape.org/namespaces/inkscape"
   inkscape:version="1.0 (4035a4fb49, 2020-05-01)"
   sodipodi:docname="udemy.svg"
   xml:space="preserve"
   viewBox="0 0 400 300"
   y="0px"
   id="logosvg.com"
   version="1.1"><metadata
   id="metadata10"><rdf:RDF><cc:Work
       rdf:about=""><dc:format>image/svg+xml</dc:format><dc:type
         rdf:resource="http://purl.org/dc/dcmitype/StillImage" /><dc:title></dc:title></cc:Work></rdf:RDF></metadata><defs
   id="defs8" /><sodipodi:namedview
   inkscape:current-layer="logosvg.com"
   inkscape:window-maximized="0"
   inkscape:window-y="24"
   inkscape:window-x="0"
   inkscape:cy="174.12816"
   inkscape:cx="167.89458"
   inkscape:zoom="2.5866667"
   showgrid="false"
   id="namedview6"
   inkscape:window-height="1054"
   inkscape:window-width="1918"
   inkscape:pageshadow="2"
   inkscape:pageopacity="0"
   guidetolerance="10"
   gridtolerance="10"
   objecttolerance="10"
   borderopacity="1"
   bordercolor="#666666"
   pagecolor="#ffffff" />
<style
   id="style2"
   type="text/css">
  .st0{fill-rule:evenodd;clip-rule:evenodd;fill:#645A53;}
  .st1{fill-rule:evenodd;clip-rule:evenodd;fill:#EA5252;}
</style>
<path
   style="stroke-width:2.45767"
   d="m 359.29184,168.96294 c -1.15214,-0.92432 -2.44906,-1.5466 -3.85977,-1.81374 -8.33295,8.30665 -18.50151,17.05568 -27.53098,22.93515 -4.16649,2.76881 -9.4062,4.15343 -12.8762,4.15343 -7.98689,0 -11.45662,-7.61433 -12.49942,-19.71953 -1.38882,-16.25841 -2.32641,-35.73245 -2.32641,-65.83097 0,-30.869482 -7.00533,-51.85497 -25.66907,-53.50235 -0.78865,-0.07009 -1.58594,-0.118098 -2.41833,-0.118098 -11.45665,0 -17.01196,5.879468 -24.30211,20.757918 -6.24763,12.797303 -15.96917,31.47848 -34.01947,66.76412 -15.62312,30.44456 -32.98111,57.42799 -47.91215,76.10917 -4.15763,5.17854 -7.44352,8.73601 -10.53231,10.76014 -2.06345,1.35811 -4.04384,2.03715 -6.12917,2.03715 -5.89273,0 -10.19486,-4.97257 -11.63188,-16.55186 -0.34159,-2.75136 -0.52124,-5.87504 -0.52124,-9.39319 0,-23.86834 9.02944,-62.61511 24.64812,-119.697041 11.45664,-41.511647 6.59785,-69.87505 -18.40076,-69.87505 -0.0393,0 -0.0788,0 -0.11835,0 -0.0525,0 -0.10526,0 -0.16227,0 l -0.0168,0.0037 c -5.66049,0.06558 -10.35264,2.116055 -14.87401,5.673512 -4.45132,3.504881 -8.90683,11.075469 -13.06445,21.252888 -4.68775,11.465501 -33.191483,68.639111 -78.558233,98.093701 -0.534535,11.1981 5.805002,22.39202 18.650481,23.60562 11.693316,1.10841 19.995543,-3.82043 30.68539,-11.00099 -0.80168,3.57074 -1.54216,6.90899 -2.2168,9.96263 -0.797265,3.60563 -1.476561,6.71629 -2.01971,9.22655 -0.814955,3.73712 -1.331815,6.14244 -1.485162,6.80823 -1.485175,6.81263 -2.545402,13.28366 -3.233299,19.42585 -6.396572,57.17827 20.104911,85.39273 51.141023,85.39273 5.18713,0 10.32635,-0.61784 15.43043,-1.91452 34.1947,-8.67013 67.1146,-47.89444 106.08035,-138.18971 -0.59155,9.82252 -0.65276,18.99648 -0.22782,27.50911 2.56728,51.75 23.03592,67.27679 51.95597,67.27679 21.8705,0 42.35241,-11.4129 52.76626,-25.59901 7.64065,-10.03266 10.76433,-21.10396 10.76433,-29.75223 0,-6.71186 -2.12932,-12.07006 -5.51574,-14.7907"
   class="st1"
   id="red" />
</svg>
